<?xml version="1.0" standalone="no"?>
<svg xmlns="http://www.w3.org/2000/svg" width="86.12" height="90.48" viewBox="0 0 86.12 90.48"><g fill="#1306b7" color="#1306b7" transform="translate(20.144 0) scale(1.0416667)"><svg width="44.0" height="48.0" x="0.0" y="0.0" viewBox="0 0 44 48"><path fill="currentColor" fill-rule="evenodd" d="M26.592 7.876c-1.442 3.958-2.352 9.744-2.352 16.195 0 6.393.894 12.136 2.311 16.09-.691.939-1.454 1.46-2.256 1.46-3.13-.003-5.665-7.895-5.665-17.634 0-9.734 2.535-17.63 5.661-17.63.82.001 1.599.546 2.3 1.52M37.084 24.07c.003 6.693-1.663 12.123-3.716 12.123s-3.717-5.43-3.717-12.121c0-6.696 1.664-12.124 3.717-12.127 2.056.003 3.719 5.43 3.716 12.125M21.51 0c2.12.002 4.037 2.67 5.43 6.98 1.172-2.82 2.642-4.504 4.238-4.504 3.83-.005 6.936 9.668 6.934 21.594.002 11.926-3.106 21.597-6.937 21.596-1.607 0-3.089-1.711-4.265-4.573-1.389 4.256-3.296 6.882-5.397 6.884-4.257-.002-7.708-10.74-7.708-23.99C13.805 10.745 17.257 0 21.51 0zm-6.145 2.36c-5.194 4.504-8.651 12.467-8.651 21.535 0 9.067 3.455 17.03 8.655 21.531C6.292 41.661-.003 33.435 0 23.894 0 14.356 6.292 6.129 15.365 2.361zm26.647 14.91c1.098 0 1.986 2.9 1.988 6.483-.002 3.577-.891 6.48-1.99 6.48-1.096 0-1.985-2.9-1.987-6.482-.002-3.58.891-6.482 1.99-6.482z"></path></svg></g><path fill="#000000" fill-rule="nonzero" d="M26.04 0.48L28.52 0.48L23.16 25L19.52 25L14.28 4.92L9.20 25L5.32 25L0 0.48L4.08 0.48L8.16 20.08L13.16 0.48L16.88 0.48L21.92 20.16L26.04 0.48ZM44.24 12.28Q46.68 12.96 47.80 14.64Q48.92 16.32 48.92 18.44L48.92 18.44Q48.92 21.28 47.16 23.14Q45.40 25 41.16 25L41.16 25L32.60 25L32.60 0.48L40 0.48Q44.16 0.48 45.98 2.20Q47.80 3.92 47.80 6.76L47.80 6.76Q47.80 8.60 46.98 10.06Q46.16 11.52 44.24 12.28L44.24 12.28ZM36.68 2L36.68 11.68L39.72 11.68Q41.88 11.68 42.80 10.34Q43.72 9 43.72 6.80L43.72 6.80Q43.72 4.44 42.72 3.22Q41.72 2 39.72 2L39.72 2L36.68 2ZM40.76 23.48Q44.84 23.48 44.84 18.44L44.84 18.44Q44.84 16.24 43.80 14.72Q42.76 13.20 40.76 13.20L40.76 13.20L36.68 13.20L36.68 23.48L40.76 23.48ZM50.20 0.48L67.32 0.48L67.32 2.52L60.84 2.52L60.84 25L56.76 25L56.76 2.52L50.20 2.52L50.20 0.48ZM77.60 0Q81.36 0 83.40 1.78Q85.44 3.56 85.92 7.24L85.92 7.24L82.60 7.68Q82.40 4.80 81.10 3.24Q79.80 1.68 77.60 1.68L77.60 1.68Q75.24 1.68 73.98 2.82Q72.72 3.96 72.72 6.04L72.72 6.04Q72.72 7.96 73.74 8.94Q74.76 9.92 77.40 10.60L77.40 10.60L79.60 11.16Q83.16 12.16 84.64 13.80Q86.12 15.44 86.12 18.36L86.12 18.36Q86.12 21.80 83.88 23.64Q81.64 25.48 77.48 25.48L77.48 25.48Q73.52 25.48 71.42 23.70Q69.32 21.92 68.88 18.24L68.88 18.24L72.12 17.76Q72.44 20.64 73.80 22.20Q75.16 23.76 77.48 23.76L77.48 23.76Q82.68 23.76 82.68 19.36L82.68 19.36Q82.68 18.04 82.24 17.24Q81.80 16.44 80.78 15.90Q79.76 15.36 77.80 14.88L77.80 14.88L75.76 14.36Q72.20 13.44 70.78 11.78Q69.36 10.12 69.36 7.08L69.36 7.08Q69.36 3.60 71.46 1.80Q73.56 0 77.60 0L77.60 0Z" transform="translate(0 65) scale(1)"></path></svg>